<svg width="807" height="525" viewBox="0 0 807 525" fill="none" xmlns="http://www.w3.org/2000/svg">
<path d="M272.842 121.337C274.057 121.341 274.057 121.341 275.297 121.345C276.152 121.345 277.006 121.344 277.886 121.343C280.771 121.341 283.657 121.347 286.542 121.352C288.601 121.352 290.66 121.352 292.719 121.352C298.329 121.351 303.938 121.357 309.547 121.364C315.402 121.37 321.257 121.371 327.112 121.372C338.208 121.375 349.304 121.384 360.4 121.394C373.028 121.405 385.657 121.41 398.285 121.415C424.271 121.426 450.257 121.443 476.243 121.466C477.533 124.02 478.82 126.577 480.106 129.134C480.469 129.852 480.832 130.571 481.207 131.311C500.905 170.539 501.418 219.654 501.377 262.594C501.374 266.151 501.377 269.707 501.378 273.263C501.38 279.257 501.378 285.25 501.373 291.244C501.368 297.305 501.368 303.367 501.373 309.428C501.388 329.107 501.361 348.786 501.243 368.466C501.236 369.605 501.23 370.744 501.223 371.918C501.186 377.871 501.127 383.823 501.026 389.776C500.999 391.446 500.979 393.117 500.965 394.787C500.789 414.105 495.55 432.62 481.469 446.515C467.786 459.249 455.468 459.737 437.305 459.487C434.702 459.485 432.099 459.486 429.496 459.491C423.919 459.496 418.342 459.468 412.765 459.417C404.702 459.344 396.639 459.321 388.576 459.309C375.49 459.29 362.404 459.23 349.318 459.145C336.616 459.062 323.914 458.998 311.212 458.96C310.427 458.958 309.642 458.955 308.834 458.953C304.897 458.941 300.961 458.93 297.024 458.919C264.43 458.825 231.836 458.667 199.243 458.466C199.39 456.736 199.54 455.006 199.691 453.277C199.774 452.313 199.857 451.35 199.943 450.358C200.396 445.989 201.208 441.716 202.063 437.411C202.332 436.022 202.332 436.022 202.606 434.604C203.188 431.599 203.778 428.595 204.368 425.591C204.78 423.469 205.191 421.346 205.602 419.224C206.429 414.956 207.258 410.688 208.088 406.421C209.646 398.399 211.167 390.371 212.68 382.341C212.957 380.874 213.234 379.407 213.511 377.94C214.097 374.84 214.682 371.739 215.267 368.639C216.167 363.868 217.068 359.097 217.969 354.326C223.753 323.711 229.522 293.093 235.243 262.466C235.49 261.139 235.738 259.813 235.986 258.487C237.787 248.848 239.584 239.209 241.379 229.569C241.804 227.287 242.229 225.004 242.655 222.722C245.397 208.009 248.127 193.296 250.676 178.548C250.858 177.504 251.039 176.46 251.225 175.385C252.038 170.696 252.841 166.007 253.62 161.313C260.392 121.371 260.392 121.371 272.842 121.337ZM274.43 180.903C269.715 186.426 269.386 195.716 268.106 202.723C267.906 203.807 267.706 204.891 267.5 206.007C266.849 209.535 266.202 213.063 265.555 216.591C265.102 219.052 264.648 221.514 264.194 223.976C262.874 231.139 261.558 238.302 260.243 245.466C259.191 251.189 258.139 256.912 257.086 262.635C256.815 264.105 256.545 265.575 256.275 267.045C253.313 283.161 250.29 299.264 247.262 315.367C246.983 316.85 246.983 316.85 246.699 318.362C246.354 320.198 246.009 322.035 245.663 323.871C245.187 326.402 244.714 328.934 244.243 331.466C243.971 332.915 243.971 332.915 243.694 334.394C243.515 335.363 243.335 336.333 243.15 337.332C242.987 338.21 242.824 339.088 242.655 339.992C241.467 347.061 241.467 347.061 244.368 353.466C247.741 355.812 249.22 356.065 253.243 355.466C255.524 355.117 255.524 355.117 257.243 353.466C260.742 345.834 261.899 337.606 263.387 329.403C263.688 327.773 263.99 326.144 264.293 324.514C264.942 321.009 265.587 317.503 266.229 313.996C267.257 308.382 268.296 302.769 269.338 297.157C271.356 286.273 273.365 275.387 275.371 264.501C276.862 256.407 278.355 248.312 279.849 240.218C280.359 237.453 280.868 234.688 281.377 231.923C281.698 230.184 282.018 228.446 282.339 226.708C282.493 225.87 282.648 225.032 282.807 224.168C283.636 219.684 284.484 215.205 285.355 210.729C285.538 209.782 285.722 208.836 285.911 207.86C286.262 206.055 286.616 204.25 286.973 202.446C289.345 191.874 289.345 191.874 286.68 181.841C282.344 179.395 278.962 178.587 274.43 180.903ZM239.43 372.091C235.304 376.571 234.62 381.963 233.618 387.778C233.484 388.499 233.35 389.221 233.211 389.964C231.433 399.096 231.433 399.096 234.305 407.466C238.021 409.995 239.831 410.253 244.243 409.466C249.677 405.392 250.471 401.062 251.555 394.716C251.723 393.86 251.892 393.004 252.065 392.122C254.146 382.247 254.146 382.247 251.68 372.966C247.364 370.31 243.92 369.497 239.43 372.091Z" fill="#636368"/>
<path d="M365.677 0.288625C366.431 0.282054 367.186 0.275482 367.964 0.268712C370.465 0.248992 372.965 0.237316 375.465 0.227346C376.322 0.22327 377.178 0.219195 378.06 0.214995C382.598 0.194135 387.135 0.179836 391.672 0.170461C396.34 0.159429 401.008 0.125066 405.676 0.0852891C409.28 0.0590303 412.884 0.0507605 416.488 0.0471793C418.208 0.042333 419.927 0.0307754 421.647 0.0121413C433.891 -0.112254 444.186 0.564894 453.481 9.42656C458.713 15.4821 461.087 21.7227 460.657 29.7313C459.404 38.0066 455.993 44.4399 449.243 49.4656C442.834 53.4394 436.682 54.0889 429.243 54.4656C428.583 60.4056 427.923 66.3456 427.243 72.4656C430.102 72.4421 430.102 72.4421 433.019 72.418C439.361 72.3694 445.703 72.3351 452.046 72.3102C455.886 72.2946 459.726 72.2736 463.566 72.2393C467.282 72.2064 470.997 72.1887 474.712 72.181C476.12 72.1755 477.528 72.1648 478.936 72.1484C499.625 71.9178 515.568 77.9582 530.493 92.3406C542.243 104.466 542.243 104.466 542.243 109.466C545.954 107.555 549.661 105.636 553.368 103.716C554.414 103.177 555.461 102.638 556.54 102.083C563.255 98.5977 569.335 94.8741 575.43 90.4031C583.344 84.8491 591.826 80.2035 600.243 75.4656C600.926 75.0767 601.609 74.6877 602.313 74.2869C611.637 68.9975 621.07 64.853 631.243 61.4656C632.258 61.124 633.274 60.7824 634.321 60.4305C650.791 55.5928 667.781 58.1847 682.723 66.3328C700.728 76.8305 709.948 93.2551 719.086 111.317C721.642 116.35 724.338 121.253 727.243 126.091C755.69 173.57 779.5 222.806 799.243 274.466C799.688 275.624 800.133 276.782 800.592 277.975C805.803 291.714 809.638 304.736 803.563 319.032C801.328 323.152 798.741 326.354 795.243 329.466C794.654 329.994 794.064 330.523 793.458 331.067C786.102 336.302 775.83 335.739 767.243 334.466C762.72 333.079 759.11 331.168 755.243 328.466C754.509 327.971 753.776 327.476 753.02 326.966C736.03 313.871 731.594 288.87 727.792 269.198C726.586 263.201 725.02 257.319 723.243 251.466C722.972 250.572 722.701 249.679 722.422 248.759C719.181 239.488 712.621 232.19 706.292 224.857C691.365 207.552 680.752 191.124 677.797 167.977C676.205 155.659 671.948 147.398 662.243 139.466C658.05 136.511 653.748 133.915 649.243 131.466C648.409 131.008 647.575 130.55 646.715 130.079C638.709 126.282 629.364 125.738 620.965 128.571C614.266 131.787 608.184 136.023 602.243 140.466C603.76 145.554 605.553 150.163 607.96 154.907C611.432 161.826 613.692 167.563 612.243 175.466C609.035 185.089 598.573 189.44 590.368 194.278C589.19 194.978 588.013 195.677 586.836 196.378C583.975 198.078 581.11 199.774 578.243 201.466C578.699 209.509 580.504 216.917 582.68 224.653C583.149 226.358 583.149 226.358 583.627 228.096C584.868 232.595 586.128 237.087 587.446 241.563C588.502 245.41 589.215 248.749 587.18 252.341C584.24 254.048 581.564 253.654 578.243 253.466C575.348 248.304 573.963 243.16 572.555 237.466C572.033 235.405 571.509 233.346 570.985 231.286C570.706 230.187 570.427 229.087 570.14 227.955C568.872 223.024 567.544 218.11 566.219 213.194C563.287 202.319 560.459 191.432 557.893 180.463C556.324 173.765 554.664 167.106 552.804 160.481C552.4 159.031 552.005 157.579 551.615 156.126C548.735 145.43 545.368 135.832 539.782 126.239C538.243 123.466 538.243 123.466 538.243 121.466C448.813 121.796 359.383 122.126 267.243 122.466C260.802 135.347 257.431 145.416 255.079 159.137C254.885 160.237 254.692 161.336 254.493 162.469C254.079 164.826 253.667 167.182 253.258 169.539C252.161 175.84 251.046 182.137 249.93 188.434C249.705 189.708 249.479 190.982 249.246 192.294C247.142 204.122 244.904 215.922 242.618 227.716C239.732 242.616 236.932 257.528 234.243 272.466C231.324 288.669 228.283 304.845 225.168 321.011C222.516 334.778 219.914 348.553 217.368 362.341C213.698 382.213 209.869 402.054 206.011 421.891C205.783 423.063 205.556 424.235 205.322 425.442C204.901 427.611 204.479 429.779 204.055 431.947C202.344 440.772 200.806 449.609 199.243 458.466C323.653 458.136 448.063 457.806 576.243 457.466C572.943 454.166 569.643 450.866 566.243 447.466C563.862 444.825 561.54 442.175 559.243 439.466C558.422 438.522 557.6 437.578 556.754 436.606C531.398 407.325 515.499 378.242 518.243 338.466C518.94 332.903 520.364 327.752 522.243 322.466C522.617 321.407 522.99 320.349 523.375 319.259C532.898 294.696 551.28 275.457 574.868 264.091C599.203 253.546 627.015 251.728 652.075 261.196C676.798 271.327 697.085 288.778 708.339 313.286C718.311 337.33 719.705 363.259 709.916 387.501C697.736 416.179 675.566 439.316 654.243 461.466C653.352 462.391 653.352 462.391 652.443 463.336C629.34 487.219 629.34 487.219 616.618 487.903C610.273 487.801 606.19 485.249 601.243 481.466C599.644 479.749 598.045 478.033 596.446 476.317C589.493 469.985 582.809 470.071 573.924 470.225C572.285 470.217 570.647 470.204 569.008 470.187C564.528 470.153 560.051 470.182 555.571 470.22C550.732 470.251 545.894 470.224 541.055 470.205C532.679 470.178 524.303 470.188 515.927 470.223C503.817 470.274 491.708 470.269 479.598 470.251C459.949 470.223 440.3 470.239 420.651 470.284C401.567 470.327 382.484 470.35 363.401 470.344C362.224 470.343 361.047 470.343 359.834 470.342C353.929 470.341 348.025 470.338 342.12 470.336C293.161 470.315 244.202 470.369 195.243 470.466C195.243 483.666 195.243 496.866 195.243 510.466C333.183 510.466 471.123 510.466 613.243 510.466C613.243 506.836 613.243 503.206 613.243 499.466C614.868 496.778 614.868 496.778 617.243 495.466C620.392 495.016 622.289 494.757 624.899 496.696C627.532 500.164 626.711 504.716 626.68 508.903C626.7 509.858 626.72 510.812 626.741 511.796C626.74 512.717 626.739 513.638 626.739 514.587C626.741 515.426 626.742 516.266 626.744 517.131C626.045 520.386 624.863 521.427 622.243 523.466C618.962 523.968 618.962 523.968 614.971 523.972C614.233 523.978 613.496 523.984 612.736 523.99C610.251 524.006 607.766 523.993 605.281 523.98C603.487 523.986 601.693 523.993 599.898 524.001C594.957 524.02 590.017 524.014 585.076 524.003C579.751 523.996 574.426 524.012 569.102 524.025C558.667 524.047 548.231 524.047 537.796 524.039C529.317 524.032 520.838 524.033 512.359 524.04C511.153 524.041 509.948 524.042 508.706 524.043C506.258 524.044 503.81 524.046 501.361 524.048C478.385 524.065 455.409 524.056 432.432 524.039C411.397 524.024 390.362 524.039 369.327 524.068C347.744 524.097 326.162 524.108 304.58 524.099C302.14 524.098 299.7 524.097 297.26 524.096C295.46 524.095 295.46 524.095 293.623 524.094C285.151 524.092 276.68 524.102 268.209 524.117C257.889 524.134 247.569 524.134 237.248 524.111C231.98 524.1 226.712 524.097 221.443 524.115C216.624 524.132 211.805 524.126 206.986 524.101C205.239 524.096 203.492 524.1 201.745 524.113C199.376 524.129 197.009 524.114 194.64 524.092C193.323 524.092 192.006 524.092 190.648 524.091C186.383 523.308 184.904 521.819 182.243 518.466C181.621 515.975 181.621 515.975 181.627 513.327C181.618 512.329 181.609 511.331 181.599 510.303C181.624 508.701 181.624 508.701 181.649 507.067C181.649 505.959 181.649 504.851 181.649 503.709C181.654 501.367 181.672 499.025 181.701 496.683C181.742 493.11 181.742 489.539 181.735 485.966C181.745 483.687 181.758 481.408 181.774 479.13C181.774 478.066 181.774 477.002 181.775 475.906C181.869 469.968 182.645 465.894 185.243 460.466C185.992 457.662 186.495 454.826 186.997 451.97C187.216 450.781 187.216 450.781 187.44 449.568C187.903 447.056 188.355 444.542 188.805 442.028C189.261 439.518 189.72 437.008 190.181 434.499C190.466 432.944 190.748 431.389 191.026 429.834C191.906 424.985 193.004 420.236 194.243 415.466C193.251 415.363 192.26 415.259 191.239 415.153C186.982 414.538 183.254 413.13 179.305 411.466C178.569 411.157 177.834 410.849 177.075 410.531C158.607 402.584 142.665 391.374 128.243 377.466C127.452 376.739 126.662 376.012 125.848 375.263C96.6358 347.636 86.8941 304.875 79.79 266.862C71.8744 223.623 71.8744 223.623 55.1895 183.2C54.3128 181.594 53.4733 179.968 52.6372 178.341C42.2434 159.041 25.2245 144.908 6.64282 133.916C5.8121 133.408 4.98138 132.9 4.12549 132.376C3.3767 131.934 2.62792 131.492 1.85645 131.036C0.242676 129.466 0.242676 129.466 0 126.784C0.080083 126.019 0.160166 125.254 0.242676 124.466C6.07224 121.733 11.9414 120.134 18.1802 118.591C26.6073 116.468 34.8502 114.09 43.063 111.251C47.4656 110.164 49.7774 110.63 53.6802 112.856C99.6506 146.213 112.048 205.428 123.151 257.805C131.701 298.079 140.157 336.84 176.196 361.485C184.482 366.822 193.147 370.729 202.243 374.466C202.395 373.406 202.395 373.406 202.551 372.325C204.085 361.989 206.002 351.734 207.93 341.466C208.288 339.55 208.646 337.634 209.004 335.718C211.374 323.047 213.767 310.38 216.17 297.715C219.573 279.774 222.907 261.821 226.24 243.867C227.049 239.507 227.859 235.147 228.67 230.787C228.986 229.091 229.301 227.396 229.616 225.7C230.417 221.392 231.22 217.085 232.027 212.779C233.812 203.245 235.563 193.706 237.268 184.157C238.101 179.491 238.946 174.828 239.793 170.164C240.386 166.895 240.971 163.625 241.547 160.353C244.642 142.757 248.09 127.727 257.532 112.368C259.266 109.427 260.689 106.44 262.118 103.341C268.704 89.9938 281.188 79.2939 295.243 74.4656C303.225 72.231 310.877 72.2062 319.122 72.2703C320.544 72.2741 321.966 72.2769 323.388 72.2789C327.101 72.2865 330.815 72.3061 334.529 72.3283C338.33 72.3489 342.131 72.3579 345.932 72.368C353.369 72.3893 360.806 72.4245 368.243 72.4656C367.913 66.1956 367.583 59.9256 367.243 53.4656C365.428 53.5481 363.613 53.6306 361.743 53.7156C353.893 53.688 349.277 51.5135 343.493 46.3406C338.506 40.989 336.093 34.6841 335.743 27.4031C336.137 19.2837 339.878 13.0643 345.305 7.19219C351.243 1.90109 357.91 0.317945 365.677 0.288625ZM351.243 18.4656C348.125 23.1418 348.527 27.9946 349.243 33.4656C351.132 37.4181 354.17 39.932 358.243 41.4656C360.846 41.6658 363.342 41.7594 365.945 41.7562C367.102 41.7662 367.102 41.7662 368.282 41.7765C370.829 41.7955 373.376 41.7994 375.922 41.8016C377.696 41.808 379.469 41.8147 381.243 41.8217C384.96 41.8337 388.677 41.8374 392.395 41.8362C397.152 41.836 401.908 41.8633 406.665 41.8978C410.328 41.92 413.991 41.9241 417.655 41.923C419.408 41.9254 421.162 41.9342 422.915 41.9497C425.371 41.9693 427.825 41.9635 430.281 41.9515C431.362 41.9683 431.362 41.9683 432.464 41.9855C437.511 41.9228 440.336 40.5998 444.243 37.4656C447.139 34.1699 448.139 31.5616 448.555 27.1531C448.178 22.7002 447.11 20.8614 444.243 17.4656C439.628 13.7311 436.012 12.8802 430.221 12.9322C429.049 12.9193 429.049 12.9193 427.854 12.9061C425.285 12.8835 422.718 12.8901 420.149 12.8992C418.356 12.894 416.563 12.8877 414.77 12.8804C411.017 12.87 407.265 12.8746 403.513 12.8892C398.711 12.9064 393.91 12.8829 389.108 12.8477C385.407 12.8257 381.706 12.8272 378.005 12.8355C376.235 12.8363 374.465 12.8295 372.695 12.8147C370.217 12.7972 367.742 12.8118 365.264 12.8345C364.538 12.8228 363.811 12.8111 363.063 12.7991C357.371 12.9048 355.098 14.5748 351.243 18.4656ZM380.243 53.4656C380.573 59.7356 380.903 66.0056 381.243 72.4656C392.463 72.4656 403.683 72.4656 415.243 72.4656C415.573 66.1956 415.903 59.9256 416.243 53.4656C404.363 53.4656 392.483 53.4656 380.243 53.4656ZM592.93 93.4031C592.178 93.8512 591.425 94.2994 590.649 94.761C589.962 95.1882 589.275 95.6154 588.567 96.0555C587.671 96.6103 587.671 96.6103 586.757 97.1763C584.791 98.85 583.986 99.9763 583.243 102.466C583.933 105.312 583.933 105.312 585.348 108.29C585.837 109.4 586.327 110.511 586.831 111.655C587.358 112.809 587.886 113.964 588.43 115.153C588.939 116.319 589.447 117.485 589.971 118.686C591.944 123.16 591.944 123.16 594.243 127.466C595.233 127.796 596.223 128.126 597.243 128.466C599.696 127.148 601.974 125.785 604.305 124.278C617.52 116.164 629.368 112.629 644.938 116.348C648.182 117.529 651.179 118.878 654.243 120.466C655.269 120.997 656.295 121.528 657.352 122.075C670.732 129.478 682.989 139.403 687.903 154.493C688.895 159.201 689.519 163.87 690.055 168.653C692.376 186.486 700.926 199.046 712.243 212.466C727.409 230.464 735.481 246.621 740.302 269.621C746.193 297.984 746.193 297.984 764.04 319.77C769.765 323.201 775.735 323.217 782.243 322.466C787.027 320.843 789.454 318.649 792.243 314.466C795.805 306.845 794.984 298.963 792.442 291.118C791.626 288.872 790.788 286.634 789.93 284.403C789.48 283.192 789.03 281.981 788.566 280.733C787.159 276.964 785.705 273.214 784.243 269.466C783.794 268.315 783.345 267.163 782.883 265.977C764.599 219.473 741.92 175.639 717.041 132.39C711.965 123.565 707.022 114.68 702.31 105.654C694.58 91.1403 682.728 77.4901 666.708 72.1648C639.807 66.7361 615.343 79.9373 592.93 93.4031ZM277.715 101.376C275.789 103.998 275.789 103.998 273.243 109.466C357.393 109.466 441.543 109.466 528.243 109.466C519.818 96.8291 508.945 88.5788 494.055 84.9294C490.594 84.3587 487.202 84.3175 483.706 84.3185C482.955 84.3148 482.204 84.3111 481.431 84.3073C478.92 84.2963 476.41 84.2924 473.899 84.2886C472.097 84.2824 470.294 84.2757 468.492 84.2687C462.576 84.2477 456.659 84.2373 450.743 84.2273C448.702 84.2233 446.661 84.2192 444.621 84.215C435.03 84.1959 425.439 84.1817 415.848 84.1734C404.797 84.1636 393.746 84.1373 382.695 84.0969C374.141 84.0667 365.588 84.0519 357.034 84.0486C351.931 84.0463 346.828 84.0374 341.726 84.0121C336.919 83.9887 332.113 83.9847 327.306 83.9949C325.55 83.9954 323.795 83.9892 322.039 83.9753C304.119 83.8424 289.862 87.2591 277.715 101.376ZM565.793 110.653C564.946 111.104 564.098 111.555 563.225 112.02C562.344 112.497 561.463 112.974 560.555 113.466C559.216 114.181 559.216 114.181 557.85 114.911C555.645 116.09 553.442 117.275 551.243 118.466C552.563 122.645 554.159 126.55 555.993 130.528C561.82 143.695 564.947 157.981 568.372 171.923C569.181 175.214 570.006 178.5 570.868 181.778C571.196 183.041 571.196 183.041 571.532 184.329C572.224 186.724 572.224 186.724 574.243 189.466C577.456 187.579 580.662 185.679 583.868 183.778C584.771 183.248 585.675 182.717 586.606 182.171C593.927 177.959 593.927 177.959 600.243 172.466C599.92 168.287 598.73 164.858 597.012 161.063C596.312 159.502 596.312 159.502 595.597 157.908C594.834 156.235 594.834 156.235 594.055 154.528C593.253 152.748 592.451 150.967 591.649 149.187C590.791 147.286 589.93 145.386 589.067 143.487C587.148 139.26 585.24 135.027 583.333 130.794C579.977 123.348 576.612 115.906 573.243 108.466C569.918 108.466 568.678 109.104 565.793 110.653ZM38.9927 125.341C34.4239 126.78 29.8563 128.178 25.2427 129.466C25.2427 130.126 25.2427 130.786 25.2427 131.466C26.9227 132.971 26.9227 132.971 29.1177 134.528C72.686 167.58 82.9095 217.733 92.6541 268.589C101.474 314.367 115.654 356.488 155.243 384.466C174.496 397.705 174.496 397.705 196.243 403.466C196.75 401.572 197.248 399.675 197.743 397.778C198.021 396.722 198.3 395.667 198.586 394.579C199.182 391.754 199.371 389.337 199.243 386.466C198.19 386.065 197.136 385.664 196.051 385.251C172.78 376.17 150.254 361.405 137.243 339.466C136.903 338.895 136.564 338.324 136.214 337.735C121.77 313.035 116.349 285.595 110.492 257.919C108.182 247.046 105.653 236.236 102.975 225.448C102.258 222.527 101.569 219.601 100.883 216.673C94.3949 189.627 83.582 161.743 65.2427 140.466C64.446 139.531 63.6494 138.596 62.8286 137.634C58.9258 133.176 55.0331 128.971 50.2427 125.466C49.5827 125.466 48.9227 125.466 48.2427 125.466C48.2427 124.806 48.2427 124.146 48.2427 123.466C44.7931 123.466 42.2783 124.294 38.9927 125.341ZM551 296.434C534.639 315.341 528.666 337.209 530.024 361.846C533.131 399.046 566.854 430.265 591.636 455.044C593.642 457.052 595.64 459.068 597.637 461.085C598.93 462.38 600.223 463.675 601.516 464.97C602.104 465.564 602.691 466.159 603.297 466.772C606.685 470.142 609.946 473.284 614.243 475.466C626.376 475.398 636.613 461.383 644.651 453.263C646.499 451.397 648.354 449.539 650.211 447.682C656.095 441.782 661.902 435.87 667.243 429.466C667.765 428.851 668.286 428.235 668.824 427.602C688.976 403.713 706.329 378.043 704.243 345.466C701.233 321.669 689.544 300.723 670.942 285.595C633.73 258.249 582.701 263.01 551 296.434Z" fill="#080808"/>
<path d="M649.243 273.466C650.268 273.9 650.268 273.9 651.314 274.343C660.743 278.433 668.661 283.452 676.243 290.466C677.02 291.151 677.797 291.837 678.598 292.544C691.783 304.798 700.042 321.94 703.243 339.466C703.426 340.43 703.609 341.394 703.797 342.388C707.336 366.844 697.804 389.073 683.68 408.545C676.964 417.52 669.725 426.122 662.243 434.466C661.321 435.511 661.321 435.511 660.381 436.576C654.701 442.972 648.796 449.099 642.749 455.144C641.173 456.723 639.605 458.309 638.038 459.895C624.962 473.046 624.962 473.046 617.805 475.778C609.551 475.054 602.639 466.161 597.024 460.513C596.281 459.772 595.538 459.031 594.773 458.267C593.215 456.71 591.658 455.15 590.105 453.588C587.756 451.229 585.396 448.88 583.036 446.532C575.315 438.819 567.914 431.117 561.243 422.466C560.268 421.271 559.291 420.08 558.309 418.891C539.645 395.685 527.825 371.865 530.243 341.466C532.599 321.077 543.831 301.805 559.243 288.466C584.147 268.834 619.215 260.42 649.243 273.466ZM583.212 325.817C574.791 337.056 572.995 347.925 574.493 361.778C576.749 373.06 583.425 382.559 592.626 389.18C602.918 395.778 613.413 398.24 625.508 395.809C636.622 392.754 646.72 387.208 653.243 377.466C659.594 365.88 662.431 353.832 659.051 340.778C654.708 328.355 646.572 319.449 634.844 313.618C616.614 305.543 596.114 310.88 583.212 325.817Z" fill="#F25B47"/>
<path d="M476.243 121.466C496.703 121.466 517.163 121.466 538.243 121.466C548.961 141.711 554.012 161.22 559.419 183.101C562.906 197.212 566.599 211.256 570.391 225.288C571.2 228.307 571.993 231.33 572.778 234.356C573.008 235.241 573.237 236.127 573.474 237.039C573.884 238.625 574.292 240.213 574.697 241.801C576.074 247.279 576.074 247.279 578.243 252.466C581.295 253.364 581.295 253.364 584.243 253.466C584.243 255.776 584.243 258.086 584.243 260.466C584.903 260.796 585.563 261.126 586.243 261.466C585.438 261.634 585.438 261.634 584.618 261.805C563.736 267.06 544.302 283.393 533.243 301.466C520.211 323.294 515.418 347.946 520.368 373.216C527.735 400.766 545.38 422.471 564.176 443.184C568.689 448.166 573.043 453.216 577.243 458.466C539.623 458.466 502.003 458.466 463.243 458.466C466.739 455.668 469.705 453.545 473.493 451.341C482.292 445.73 487.902 438.787 492.618 429.591C493.1 428.656 493.1 428.656 493.593 427.702C499.043 416.389 499.756 404.757 499.918 392.434C499.951 390.672 499.984 388.909 500.018 387.146C500.478 360.666 500.43 334.174 500.428 307.69C500.428 301.683 500.44 295.675 500.454 289.668C500.467 283.756 500.472 277.844 500.472 271.932C500.471 268.45 500.474 264.968 500.485 261.487C500.529 244.373 499.903 227.501 498.243 210.466C498.114 209.088 497.987 207.709 497.86 206.331C496.036 186.942 492.846 167.754 487.43 149.028C487.231 148.321 487.031 147.614 486.825 146.886C484.105 138.02 480.054 130.041 476.243 121.466Z" fill="#45444A"/>
<path d="M675.243 76.4657C676.414 77.1173 676.414 77.1173 677.61 77.7821C692.675 86.9307 700.301 101.578 708.116 116.693C711.56 123.304 715.267 129.735 719.055 136.153C726.093 148.096 732.732 160.228 739.243 172.466C739.707 173.336 740.171 174.207 740.649 175.104C745.96 185.077 751.176 195.094 756.15 205.24C756.918 206.805 757.69 208.368 758.464 209.93C799.279 292.467 799.279 292.467 793.524 311.891C791.547 316.124 789.233 318.908 785.243 321.466C779.655 323.328 773.368 323.464 767.735 321.665C755.369 315.396 749.87 303.427 745.68 290.888C742.967 282.402 740.826 273.906 739.18 265.153C735.053 243.298 725.487 228.253 711.243 211.466C699.004 196.938 691.841 183.244 689.368 164.403C688.363 157.04 686.709 149.938 682.368 143.778C681.896 143.094 681.424 142.409 680.938 141.704C676.926 136.407 673.175 132.272 667.743 128.466C667.137 128.037 666.531 127.608 665.907 127.167C660.028 123.124 653.889 120.082 647.243 117.466C646.317 117.093 645.392 116.721 644.438 116.337C634.387 113.597 622.435 114.261 613.098 118.817C608.623 121.4 604.256 124.123 599.957 126.989C598.614 127.72 598.614 127.72 597.243 128.466C594.243 127.466 594.243 127.466 592.861 125.121C591.367 121.805 589.884 118.486 588.43 115.153C587.902 113.999 587.374 112.844 586.83 111.655C586.341 110.545 585.852 109.434 585.348 108.29C584.67 106.76 584.67 106.76 583.978 105.199C583.243 102.466 583.243 102.466 583.944 100.223C585.928 97.5384 588.583 96.0951 591.43 94.4657C592.077 94.0883 592.724 93.7109 593.391 93.3221C607.756 85.0577 622.151 76.7905 638.243 72.4657C638.868 72.2904 639.493 72.1152 640.136 71.9347C651.703 69.3592 665.063 70.4503 675.243 76.4657Z" fill="#434247"/>
<path d="M195.243 471.466C287.643 471.466 380.043 471.466 475.243 471.466C478.593 481.516 477.694 488.877 473.243 498.466C469.798 504.427 463.251 507.462 457.243 510.466C455.799 510.559 454.351 510.589 452.905 510.589C451.988 510.591 451.072 510.593 450.127 510.595C449.114 510.592 448.1 510.589 447.056 510.586C445.448 510.587 445.448 510.587 443.808 510.588C440.194 510.59 436.579 510.585 432.965 510.579C430.383 510.579 427.802 510.579 425.22 510.58C419.65 510.58 414.08 510.577 408.51 510.571C400.456 510.563 392.403 510.561 384.349 510.559C371.284 510.557 358.219 510.551 345.153 510.541C332.459 510.532 319.765 510.525 307.071 510.521C306.289 510.52 305.507 510.52 304.701 510.52C300.778 510.518 296.855 510.517 292.932 510.516C260.369 510.506 227.806 510.488 195.243 510.466C195.243 497.596 195.243 484.726 195.243 471.466Z" fill="#46464A"/>
<path d="M475.243 470.466C490.116 470.302 504.989 470.179 519.862 470.103C526.769 470.067 533.675 470.018 540.581 469.938C547.247 469.86 553.912 469.82 560.578 469.801C563.12 469.789 565.663 469.763 568.205 469.725C571.768 469.675 575.328 469.668 578.891 469.671C579.942 469.646 580.992 469.621 582.074 469.595C587.404 469.647 590.427 470.026 594.281 473.881C595.275 475.071 596.262 476.265 597.243 477.466C598.93 478.791 600.655 480.073 602.43 481.278C603.249 481.841 604.067 482.405 604.911 482.985C608.687 485.382 611.505 486.695 615.993 487.091C616.792 487.165 617.591 487.24 618.415 487.317C619.018 487.366 619.621 487.415 620.243 487.466C620.573 490.106 620.903 492.746 621.243 495.466C620.273 495.754 619.304 496.043 618.305 496.341C615.136 497.108 615.136 497.108 614.243 499.466C613.913 503.096 613.583 506.726 613.243 510.466C561.763 510.466 510.283 510.466 457.243 510.466C459.972 508.418 462.262 506.879 465.18 505.278C470.792 501.798 473.211 497.118 475.555 491.091C476.891 484.046 476.278 477.519 475.243 470.466Z" fill="#38363C"/>
<path d="M48.2427 123.466C48.2427 124.126 48.2427 124.786 48.2427 125.466C48.8086 125.718 49.3745 125.971 49.9575 126.231C64.8884 134.296 74.7813 151.871 82.2427 166.466C82.5893 167.14 82.9359 167.814 83.293 168.508C97.8975 197.271 104.425 229.101 111.086 260.432C119.923 301.983 130.036 345.94 167.93 370.903C173.046 374.206 178.268 377.337 183.583 380.309C184.13 380.691 184.678 381.073 185.243 381.466C185.243 382.126 185.243 382.786 185.243 383.466C167.403 385.355 151.485 374.478 138.243 363.778C136.568 362.35 134.9 360.913 133.243 359.466C132.469 358.813 131.696 358.161 130.899 357.489C125.624 352.998 125.624 352.998 123.711 350.329C122.292 348.177 122.292 348.177 119.243 347.466C103.348 323.979 97.4064 294.057 92.393 266.634C90.3506 255.505 87.8033 244.485 85.2427 233.466C84.9749 232.294 84.7071 231.122 84.4312 229.915C78.1726 202.719 69.4516 177.051 51.2427 155.466C50.5015 154.584 49.7603 153.702 48.9966 152.794C42.7409 145.613 35.9251 138.507 27.9106 133.302C27.0302 132.696 26.1498 132.09 25.2427 131.466C25.2427 130.806 25.2427 130.146 25.2427 129.466C26.1837 129.2 27.1247 128.935 28.0942 128.661C29.3395 128.308 30.5847 127.955 31.8677 127.591C33.0974 127.243 34.3272 126.895 35.5942 126.536C37.9177 125.854 40.2279 125.125 42.5161 124.333C45.2427 123.466 45.2427 123.466 48.2427 123.466Z" fill="#626168"/>
<path d="M466.856 83.9481C467.888 83.9435 468.921 83.939 469.985 83.9344C471.128 83.9263 472.271 83.9181 473.448 83.9097C475.265 83.9374 475.265 83.9374 477.118 83.9656C478.345 83.977 479.573 83.9884 480.838 84.0001C489.304 84.182 496.507 84.8096 504.243 88.4656C505.401 88.9568 505.401 88.9568 506.583 89.4578C515.305 93.6581 523.323 101.266 528.243 109.466C444.093 109.466 359.943 109.466 273.243 109.466C277.243 102.466 277.243 102.466 279.133 101.547C279.829 101.52 280.525 101.493 281.243 101.466C282.126 101.399 283.01 101.332 283.92 101.264C285.447 101.211 285.447 101.211 287.005 101.157C288.734 101.095 288.734 101.095 290.499 101.033C291.741 100.994 292.984 100.956 294.265 100.916C295.56 100.874 296.856 100.832 298.19 100.789C310.227 100.414 322.261 100.302 334.303 100.266C338.019 100.254 341.734 100.235 345.45 100.213C355.989 100.153 366.529 100.097 377.068 100.064C383.579 100.043 390.09 100.008 396.601 99.9635C399.052 99.9495 401.503 99.9407 403.955 99.9375C423.609 99.909 444.076 99.4037 461.243 88.4656C461.664 87.7882 462.085 87.1107 462.519 86.4127C464.243 84.4656 464.243 84.4656 466.856 83.9481Z" fill="#404045"/>
<path d="M277.243 179.466C280.838 179.669 283.525 180.061 286.68 181.841C290.638 188.49 288.088 196.789 286.657 203.966C286.289 205.852 285.923 207.739 285.558 209.625C285.351 210.696 285.144 211.767 284.93 212.87C283.559 220.043 282.245 227.226 280.922 234.407C280.303 237.766 279.683 241.124 279.064 244.482C278.906 245.34 278.747 246.198 278.584 247.081C268.912 299.512 268.912 299.512 264.063 324.952C263.644 327.156 263.226 329.361 262.811 331.566C262.246 334.561 261.673 337.554 261.098 340.548C260.937 341.407 260.777 342.267 260.611 343.152C260.459 343.935 260.307 344.717 260.15 345.523C259.958 346.529 259.958 346.529 259.762 347.555C258.943 350.569 258.067 352.877 255.493 354.716C252.468 355.724 250.417 355.919 247.243 355.466C244.368 353.466 244.368 353.466 242.243 350.466C241.87 344.571 242.653 339.176 243.782 333.403C243.943 332.547 244.104 331.691 244.27 330.81C244.796 328.027 245.332 325.246 245.868 322.466C246.238 320.518 246.607 318.569 246.975 316.621C247.714 312.715 248.458 308.81 249.204 304.906C250.59 297.658 251.948 290.406 253.305 283.153C253.543 281.884 253.782 280.616 254.027 279.308C255.76 270.07 257.476 260.828 259.18 251.584C259.616 249.227 260.054 246.87 260.493 244.513C261.975 236.524 263.413 228.53 264.769 220.518C265.456 216.467 266.157 212.418 266.86 208.369C267.196 206.405 267.525 204.44 267.847 202.474C268.297 199.727 268.771 196.985 269.251 194.243C269.378 193.427 269.504 192.611 269.635 191.77C270.58 186.552 272.015 183.958 276.243 180.466C276.573 180.136 276.903 179.806 277.243 179.466Z" fill="#CED0D1"/>
<path d="M633.364 326.684C638.726 330.333 642.052 334.876 645.243 340.466C645.618 341.048 645.993 341.631 646.379 342.231C648.867 348.668 648.228 357.981 646.368 364.559C642.317 373.193 636.02 378.917 627.243 382.466C619.884 384.918 610.584 384.641 603.618 381.216C602.138 380.334 600.675 379.422 599.243 378.466C598.335 377.909 597.428 377.352 596.493 376.778C590.365 370.48 586.268 362.449 585.93 353.653C586.122 345.156 589.023 337.839 594.961 331.684C606.023 321.325 619.923 318.961 633.364 326.684Z" fill="#FCFCFC"/>
<path d="M641.864 317.759C650.934 324.267 657.528 333.521 659.915 344.579C661.447 358.056 658.549 370.533 650.243 381.466C642.511 390.168 631.035 395.662 619.508 396.716C607.415 397.217 597.407 393.27 588.243 385.466C579.459 377.299 574.824 367.949 574.004 355.985C573.732 342.367 577.035 332.662 586.243 322.466C602.347 307.923 623.579 305.998 641.864 317.759ZM592.641 333.606C589.324 338.017 586.771 342.922 586.243 348.466C586.168 349.16 586.093 349.855 586.016 350.571C585.505 359.029 588.426 367.013 593.43 373.841C601.627 381.491 609.402 383.963 620.442 383.739C629.219 383.108 635.266 378.7 641.243 372.466C647.744 363.911 648.654 354.897 647.243 344.466C644.332 335.391 638.112 329.33 630.055 324.591C616.472 319.157 602.415 322.832 592.641 333.606Z" fill="#0A0807"/>
<path d="M307.792 85.3454C308.46 85.3446 309.128 85.3437 309.816 85.3428C312.06 85.3412 314.303 85.3467 316.546 85.3521C318.152 85.3524 319.759 85.3523 321.365 85.3517C325.731 85.3514 330.096 85.3573 334.461 85.3643C339.022 85.3705 343.582 85.3711 348.143 85.3723C356.78 85.3754 365.418 85.3836 374.056 85.3937C383.889 85.4048 393.722 85.4103 403.555 85.4153C423.784 85.4258 444.014 85.4434 464.243 85.4657C455.523 94.4016 445.369 97.485 433.243 99.4657C431.746 99.7241 431.746 99.7241 430.218 99.9878C425.263 100.685 420.303 100.634 415.307 100.655C413.686 100.668 413.686 100.668 412.032 100.68C409.687 100.698 407.342 100.713 404.998 100.726C401.254 100.747 397.511 100.774 393.767 100.803C386.453 100.857 379.14 100.906 371.826 100.953C360.716 101.024 349.606 101.1 338.497 101.184C337.243 101.194 335.989 101.203 334.697 101.213C315.867 101.359 297.057 101.674 278.243 102.466C282.184 94.1896 290.086 89.9716 298.243 86.4657C301.639 85.3335 304.21 85.3427 307.792 85.3454Z" fill="#626269"/>
<path d="M363.638 13.0958C364.283 13.081 364.927 13.0663 365.591 13.0511C367.721 13.0066 369.851 12.9783 371.981 12.9539C372.71 12.9445 373.439 12.9351 374.19 12.9254C378.048 12.8779 381.906 12.8442 385.765 12.8204C389.744 12.7927 393.72 12.7135 397.698 12.6228C400.763 12.5629 403.828 12.5431 406.894 12.5339C408.36 12.5223 409.826 12.4955 411.292 12.4529C422.725 12.1406 422.725 12.1406 426.487 15.4255C430.56 21.3382 431.365 26.4257 430.243 33.4656C428.911 36.9169 427.833 38.8756 425.243 41.4656C422.499 41.7331 422.499 41.7331 418.96 41.7562C418.316 41.7629 417.672 41.7696 417.008 41.7765C414.873 41.7956 412.738 41.7994 410.602 41.8016C409.117 41.808 407.632 41.8147 406.147 41.8218C403.03 41.8337 399.913 41.8374 396.796 41.8363C392.81 41.836 388.825 41.8633 384.839 41.8978C381.769 41.9201 378.7 41.9241 375.63 41.923C374.161 41.9254 372.693 41.9342 371.224 41.9497C369.163 41.9694 367.103 41.9635 365.042 41.9515C363.872 41.9543 362.701 41.9572 361.494 41.9601C356.767 41.2413 353.701 38.9549 350.399 35.5828C348.027 31.239 348.547 26.2398 349.243 21.4656C352.323 15.2805 357.032 13.2245 363.638 13.0958Z" fill="#44444A"/>
<path d="M573.243 108.466C578.589 120.027 583.91 131.599 589.201 143.186C590.147 145.257 591.096 147.326 592.045 149.395C593.501 152.579 594.938 155.77 596.368 158.966C596.786 159.876 597.205 160.786 597.637 161.724C598.004 162.556 598.372 163.389 598.75 164.247C599.066 164.949 599.382 165.651 599.708 166.374C600.394 169.057 600.033 170.832 599.243 173.466C597.485 175.169 597.485 175.169 595.118 176.716C594.231 177.3 593.344 177.884 592.43 178.485C586.413 182.224 580.349 185.875 574.243 189.466C572.052 186.18 571.349 183.594 570.368 179.778C570.195 179.114 570.022 178.45 569.844 177.765C568.64 173.114 567.506 168.446 566.368 163.778C562.886 149.758 559.071 136.183 552.563 123.239C551.243 120.466 551.243 120.466 551.243 118.466C554.342 116.789 557.448 115.126 560.555 113.466C561.436 112.989 562.317 112.512 563.225 112.02C564.073 111.569 564.92 111.118 565.793 110.653C566.574 110.234 567.354 109.815 568.158 109.384C570.243 108.466 570.243 108.466 573.243 108.466Z" fill="#F5BD65"/>
<path d="M120.243 347.466C123.242 348.576 124.429 349.694 126.489 352.223C129.2 355.547 132.224 358.114 135.618 360.716C136.223 361.183 136.829 361.65 137.453 362.132C152.549 373.642 165.869 381.52 185.243 383.466C185.243 382.806 185.243 382.146 185.243 381.466C189.963 383.008 194.659 384.544 199.243 386.466C198.79 392.381 198.084 397.818 196.243 403.466C188.745 402.65 182.905 399.811 176.243 396.466C175.312 396.002 175.312 396.002 174.363 395.53C152.679 384.643 133.298 369.045 120.243 348.466C120.243 348.136 120.243 347.806 120.243 347.466Z" fill="#454449"/>
<path d="M380.243 53.4656C392.123 53.4656 404.003 53.4656 416.243 53.4656C415.913 59.7356 415.583 66.0056 415.243 72.4656C404.023 72.4656 392.803 72.4656 381.243 72.4656C380.913 66.1956 380.583 59.9256 380.243 53.4656Z" fill="#424148"/>
<path d="M249.243 371.466C251.68 372.966 251.68 372.966 253.243 375.466C253.983 381.94 252.8 388.38 251.555 394.716C251.406 395.587 251.257 396.458 251.104 397.356C250.049 402.785 248.856 406.007 244.243 409.466C239.831 410.253 238.021 409.995 234.305 407.466C230.904 402.519 232.046 397.168 232.977 391.485C233.307 389.748 233.646 388.012 233.993 386.278C234.15 385.402 234.307 384.526 234.469 383.624C235.458 378.61 236.477 375.164 240.243 371.466C243.428 369.873 245.845 370.704 249.243 371.466Z" fill="#CCCED0"/>
<path d="M424.243 13.4656C436.855 12.8437 436.855 12.8437 441.868 15.0906C445.621 18.8436 448.008 21.5875 448.68 26.9657C448.031 32.1625 446.579 35.2595 442.68 38.7782C438.699 41.5342 436.466 41.5757 431.618 41.5282C430.429 41.5191 429.241 41.5101 428.016 41.5008C427.101 41.4892 426.186 41.4776 425.243 41.4657C425.903 40.3725 426.563 39.2794 427.243 38.1532C429.801 32.9625 430.215 28.1535 429.243 22.4657C427.889 19.2254 426.237 16.3508 424.243 13.4656Z" fill="#37353C"/>
<path d="M195.243 470.466C287.643 470.466 380.043 470.466 475.243 470.466C475.243 470.796 475.243 471.126 475.243 471.466C382.843 471.466 290.443 471.466 195.243 471.466C195.243 471.136 195.243 470.806 195.243 470.466Z" fill="#38363C"/>
<path d="M306.243 84.4656C358.383 84.4656 410.523 84.4656 464.243 84.4656C464.243 84.7956 464.243 85.1256 464.243 85.4656C412.103 85.4656 359.963 85.4656 306.243 85.4656C306.243 85.1356 306.243 84.8056 306.243 84.4656Z" fill="#404045"/>
</svg>
